<?xml version="1.0" encoding="UTF-8" standalone="no"?>
<!-- Created with Inkscape (http://www.inkscape.org/) -->

<svg
   xmlns:dc="http://purl.org/dc/elements/1.1/"
   xmlns:cc="http://creativecommons.org/ns#"
   xmlns:rdf="http://www.w3.org/1999/02/22-rdf-syntax-ns#"
   xmlns:svg="http://www.w3.org/2000/svg"
   xmlns="http://www.w3.org/2000/svg"
   xmlns:sodipodi="http://sodipodi.sourceforge.net/DTD/sodipodi-0.dtd"
   xmlns:inkscape="http://www.inkscape.org/namespaces/inkscape"
   width="210mm"
   height="297mm"
   viewBox="0 0 210 297"
   id="svg2"
   version="1.1"
   inkscape:version="0.91+devel r"
   sodipodi:docname="air-quality.svg">
  <defs
     id="defs4" />
  <sodipodi:namedview
     id="base"
     pagecolor="#ffffff"
     bordercolor="#666666"
     borderopacity="1.0"
     inkscape:pageopacity="0.0"
     inkscape:pageshadow="2"
     inkscape:zoom="3.959798"
     inkscape:cx="227.13854"
     inkscape:cy="566.32485"
     inkscape:document-units="mm"
     inkscape:current-layer="g4206"
     showgrid="false"
     inkscape:window-width="1920"
     inkscape:window-height="1028"
     inkscape:window-x="1920"
     inkscape:window-y="0"
     inkscape:window-maximized="1" />
  <metadata
     id="metadata7">
    <rdf:RDF>
      <cc:Work
         rdf:about="">
        <dc:format>image/svg+xml</dc:format>
        <dc:type
           rdf:resource="http://purl.org/dc/dcmitype/StillImage" />
        <dc:title></dc:title>
      </cc:Work>
    </rdf:RDF>
  </metadata>
  <g
     inkscape:label="Calque 1"
     inkscape:groupmode="layer"
     id="layer1">
    <g
       id="g4206"
       transform="translate(28.998744,1.8040693)">
      <path
         style="fill:#000000;stroke-width:0.16933334"
         d="m 41.391506,145.83241 c 0.34323,-0.27966 0.36096,-0.42019 0.31509,-2.49766 -0.0402,-1.82225 -0.0923,-2.20134 -0.3026,-2.20134 -0.20839,0 -0.26225,0.34968 -0.29994,1.94734 -0.0374,1.5854 -0.0985,1.98667 -0.3287,2.159 -0.36361,0.27219 -10.05549,0.30558 -10.5585,0.0364 -0.31512,-0.16865 -0.32743,-0.4205 -0.32494,-6.64633 0.001,-3.55907 0.0637,-6.56738 0.13849,-6.68513 0.10589,-0.16681 1.32993,-0.20421 5.54308,-0.16933 l 5.40717,0.0447 0.0549,0.67519 c 0.0546,0.67043 0.27352,1.10281 0.55845,1.10281 0.24832,0 0.17107,-1.93653 -0.0916,-2.29597 -0.22808,-0.31212 -0.52272,-0.33116 -5.84312,-0.37761 l -5.60293,-0.0489 -0.42221,0.42222 -0.42221,0.42221 0,6.8657 c 0,6.63992 0.0111,6.87683 0.33866,7.20436 0.32494,0.32494 0.56445,0.33867 5.90791,0.33867 5.0526,0 5.60298,-0.0275 5.93294,-0.29634 z m -6.86161,-2.91105 c 0.96051,-0.59362 0.79293,-0.78776 -0.6189,-0.71699 -0.92782,0.0465 -1.44268,-0.0203 -2.10801,-0.27348 -0.48418,-0.18426 -0.92234,-0.29303 -0.97367,-0.24169 -0.0513,0.0513 -0.0933,0.37907 -0.0933,0.72832 0,0.53611 0.0725,0.6631 0.46567,0.8154 0.76351,0.29578 2.62794,0.12125 3.32824,-0.31156 z m -6.19668,-1.83028 -0.0525,-0.635 -1.016,-0.0437 c -1.01903,-0.0438 -1.77285,0.19113 -1.90574,0.59404 -0.0483,0.14631 0.15677,0.21569 0.66396,0.22468 0.40358,0.007 1.03858,0.11347 1.41111,0.23625 0.96604,0.31838 0.95703,0.32216 0.89922,-0.37626 z m 7.90007,-1.23331 c 1.90901,-0.58066 2.13822,-0.58026 4.07465,0.007 1.44435,0.43806 2.00856,0.53108 2.8834,0.47538 1.13859,-0.0725 1.96847,-0.49106 2.07798,-1.04806 0.0481,-0.24452 -0.064,-0.26738 -0.85502,-0.1744 -0.81691,0.096 -1.11235,0.0271 -2.87805,-0.67125 -2.61,-1.03228 -3.28758,-1.09727 -5.6733,-0.54416 -2.01837,0.46796 -2.38795,0.45463 -4.08991,-0.14745 -0.40753,-0.14417 -0.80758,-0.26212 -0.889,-0.26212 -0.0814,0 -0.14805,0.46108 -0.14805,1.02464 0,1.01932 0.003,1.02598 0.61921,1.28336 1.4879,0.62168 2.96491,0.63895 4.87809,0.057 z m -10.22382,-1.28144 c 0.62715,-0.16067 1.32244,-0.22883 1.70701,-0.16734 l 0.64885,0.10376 0,-0.87031 0,-0.87031 -0.69511,0.11115 c -0.38231,0.0611 -0.93476,0.2318 -1.22767,0.37927 -0.80942,0.4075 -1.96997,1.58486 -1.56223,1.58486 0.039,0 0.54716,-0.12199 1.12915,-0.27108 z m 19.41619,-1.58702 c 1.03004,-0.46756 0.95583,-0.82531 -0.16933,-0.81632 -1.01403,0.008 -1.78257,-0.27552 -3.24793,-1.1986 -1.47043,-0.92628 -2.11428,-1.09774 -3.7221,-0.99124 -0.94584,0.0627 -1.8412,0.2624 -2.89364,0.64553 -1.26194,0.45939 -1.75576,0.55304 -2.87186,0.54461 l -1.34785,-0.0102 0.46155,0.39702 c 0.97936,0.84241 2.08971,0.89126 4.77416,0.21008 1.93872,-0.49196 3.18806,-0.37511 4.826,0.45136 2.3712,1.19646 2.99483,1.3107 4.191,0.76774 z"
         id="path4218"
         inkscape:connector-curvature="0"
         sodipodi:nodetypes="ccsscccccccscscccscscccsccscccccccccccccsccsssssccccccccccscccscscccsscc"
         inkscape:export-xdpi="304.7363"
         inkscape:export-ydpi="304.7363" />
    </g>
  </g>
</svg>
